<svg width="236" height="236" viewBox="0 0 236 236" fill="none" xmlns="http://www.w3.org/2000/svg">
<path d="M39.736 46.8043C45.8083 46.8043 50.7493 41.8632 50.7493 35.7909C50.7493 29.7186 45.8083 24.7776 39.736 24.7776C33.6637 24.7776 28.7227 29.7186 28.7227 35.7909C28.7227 41.8632 33.6637 46.8043 39.736 46.8043ZM39.736 31.0709C42.3391 31.0709 44.456 33.1878 44.456 35.7909C44.456 38.394 42.3391 40.5109 39.736 40.5109C37.1329 40.5109 35.016 38.394 35.016 35.7909C35.016 33.1878 37.1337 31.0709 39.736 31.0709Z" fill="#999999"/>
<path d="M182.908 89.2843C182.908 95.3566 187.849 100.298 193.922 100.298C199.994 100.298 204.935 95.3566 204.935 89.2843C204.935 83.212 199.994 78.271 193.922 78.271C187.849 78.271 182.908 83.212 182.908 89.2843ZM193.922 84.5643C196.525 84.5643 198.642 86.6812 198.642 89.2843C198.642 91.8874 196.525 94.0043 193.922 94.0043C191.318 94.0043 189.202 91.8874 189.202 89.2843C189.202 86.6812 191.319 84.5643 193.922 84.5643Z" fill="#999999"/>
<path d="M206.508 55.0871C208.476 55.0871 210.071 53.4919 210.071 51.5242C210.071 49.5566 208.476 47.9614 206.508 47.9614C204.54 47.9614 202.945 49.5566 202.945 51.5242C202.945 53.4919 204.54 55.0871 206.508 55.0871Z" fill="#999999"/>
<path d="M55.4691 67.6737C57.4368 67.6737 59.0319 66.0786 59.0319 64.1109C59.0319 62.1432 57.4368 60.5481 55.4691 60.5481C53.5014 60.5481 51.9062 62.1432 51.9062 64.1109C51.9062 66.0786 53.5014 67.6737 55.4691 67.6737Z" fill="#999999"/>
<path d="M171.758 40.6494C172.372 41.2637 173.177 41.5713 173.982 41.5713C174.787 41.5713 175.593 41.2637 176.207 40.6494L179.763 37.0936L183.318 40.6494C183.933 41.2637 184.738 41.5713 185.543 41.5713C186.348 41.5713 187.153 41.2637 187.768 40.6494C188.997 39.4206 188.997 37.4287 187.768 36.2L184.212 32.6442L187.768 29.0885C188.997 27.8597 188.997 25.8679 187.768 24.6391C186.539 23.4103 184.547 23.4103 183.318 24.6391L179.763 28.1948L176.207 24.6391C174.978 23.4103 172.986 23.4103 171.758 24.6391C170.529 25.8679 170.529 27.8597 171.758 29.0885L175.313 32.6442L171.758 36.2C170.529 37.4287 170.529 39.4198 171.758 40.6494Z" fill="#999999"/>
<path d="M27.0095 106.729C27.6239 107.344 28.4294 107.651 29.2342 107.651C30.0389 107.651 30.8445 107.344 31.4589 106.729L35.0146 103.174L38.5703 106.729C39.1847 107.344 39.9903 107.651 40.795 107.651C41.5998 107.651 42.4053 107.344 43.0197 106.729C44.2485 105.501 44.2485 103.509 43.0197 102.28L39.464 98.7243L43.0197 95.1686C44.2485 93.9398 44.2485 91.948 43.0197 90.7192C41.7909 89.4904 39.7991 89.4904 38.5703 90.7192L35.0146 94.2749L31.4589 90.7192C30.2301 89.4904 28.2382 89.4904 27.0095 90.7192C25.7807 91.948 25.7807 93.9398 27.0095 95.1686L30.5652 98.7243L27.0095 102.28C25.7807 103.509 25.7807 105.5 27.0095 106.729Z" fill="#999999"/>
<path d="M134.135 108.164C135.873 108.164 137.282 106.755 137.282 105.018C137.282 103.28 135.873 101.871 134.135 101.871C132.397 101.871 130.988 103.28 130.988 105.018C130.988 106.755 132.397 108.164 134.135 108.164Z" fill="#999999"/>
<path d="M102.668 108.164C104.406 108.164 105.815 106.755 105.815 105.018C105.815 103.28 104.406 101.871 102.668 101.871C100.93 101.871 99.5215 103.28 99.5215 105.018C99.5215 106.755 100.93 108.164 102.668 108.164Z" fill="#999999"/>
<path d="M205.25 155.994C201.258 152.998 200.923 148.158 200.536 142.556C199.93 133.823 199.178 122.957 181.727 120.775C172.834 119.672 164.017 122.521 156.889 128.811C150.963 134.044 146.779 141.181 144.83 148.901L132.563 143.327V140.789C132.563 140.76 132.548 140.735 132.547 140.706C144.59 134.952 153.746 124.23 157.461 111.305C159.553 111.36 161.48 110.797 163.382 109.612C166.301 107.79 168.277 104.827 168.664 101.681C169.054 98.5275 168.077 95.3659 165.991 93.0028C164.556 91.383 162.694 90.2369 160.647 89.6752C160.641 89.1222 160.619 87.1114 160.612 86.9022C160.769 86.5246 160.884 72.8767 160.884 72.8767C161.613 72.7902 162.322 72.658 162.992 72.4259C165.352 71.6117 167.153 69.9401 168.339 67.4605H168.343C172.436 58.9063 165.121 46.7877 151.224 37.4578C152.198 34.9924 152.299 32.3036 151.411 29.7831C150.431 27.0085 148.434 24.7807 145.782 23.511C143.13 22.2358 140.143 22.0761 137.362 23.0532C134.838 23.9445 132.806 25.7082 131.497 28.0099C115.517 23.0296 101.489 24.9254 97.3899 33.4796C96.4672 35.407 96.2681 37.4208 96.7157 39.371C83.2488 45.5282 75.8691 57.1693 75.9257 72.3614L75.9658 77.5574C75.9965 80.4979 76.0744 86.007 76.1326 86.2532C76.1318 86.2988 76.1649 88.8995 76.1649 89.6681C74.2721 90.181 72.5478 91.1982 71.1467 92.6488C69.0542 94.8216 67.9599 97.6795 68.0677 100.696C68.1841 104.064 70.0957 107.315 73.1747 109.393C75.1202 110.705 77.0711 111.347 79.1912 111.313C82.4826 123.337 90.4641 133.428 101.113 139.555C101.112 139.581 101.098 139.603 101.098 139.63V143.327L76.0201 154.724C64.4939 159.963 57.0449 171.671 57.0449 184.546V210.429C57.0449 212.169 58.4523 213.576 60.1916 213.576H173.472C175.211 213.576 176.618 212.169 176.618 210.429V195.941C178.168 196.136 179.737 196.269 181.338 196.269C195.237 196.269 209.975 187.275 213.524 176.63C214.96 172.318 215.796 163.904 205.25 155.994ZM139.452 28.9909C140.645 28.5732 141.923 28.6464 143.057 29.1844C144.949 30.093 145.94 32.1014 145.675 34.0744C144.387 33.3656 143.067 32.6757 141.698 32.0204C140.343 31.3714 138.99 30.779 137.643 30.2244C138.151 29.6903 138.738 29.2419 139.452 28.9909ZM103.063 36.1968C104.479 33.2436 108.901 31.5256 115.102 31.5256C121.583 31.5256 130.009 33.4002 138.982 37.6962C156.54 46.1096 165.553 58.7025 162.662 64.7441C162.085 65.9517 161.436 66.3049 160.935 66.4803C157.273 67.7343 148.585 63.4351 139.366 58.8874C137.102 57.7688 134.727 56.5951 132.243 55.4056C129.806 54.2382 127.391 53.1164 125.049 52.0285C114.887 47.3053 104.383 42.4193 102.893 38.2681C102.648 37.5821 102.697 36.9614 103.063 36.1968ZM99.9135 44.8202C104.328 49.327 112.566 53.166 122.394 57.7349C124.717 58.8135 127.111 59.9258 129.526 61.0846C131.984 62.2614 134.338 63.4233 136.582 64.5294C143.723 68.0568 149.654 70.9777 154.589 72.267V84.1654C145.174 91.2454 134.526 93.9279 124.462 91.7276C115.44 89.7578 107.958 84.0395 103.938 76.0407C103.48 75.1313 102.61 74.498 101.606 74.3446C100.595 74.1818 99.5776 74.5287 98.8704 75.2603C94.8112 79.4391 88.8837 81.9501 82.2922 82.3615C82.2891 80.8433 82.271 79.1905 82.2552 77.4968L82.2151 72.337C82.1561 56.1207 91.6181 48.4428 99.9135 44.8202ZM84.6467 107.089C84.4658 106.207 83.9151 105.445 83.1347 104.993C82.3544 104.545 81.4166 104.458 80.56 104.738C79.343 105.153 78.2181 105.209 76.6943 104.176C75.2995 103.236 74.4019 101.816 74.3524 100.473C74.306 99.1765 74.7764 97.9501 75.674 97.0187C76.5716 96.0904 77.776 95.5775 79.0692 95.5775C79.9204 95.5775 80.7684 95.2149 81.3616 94.6068C82.2356 93.7084 82.5054 92.9375 82.4511 88.6431C89.1826 88.2655 95.428 86.0699 100.322 82.3521C105.469 90.2219 113.584 95.7962 123.119 97.8762C125.873 98.4788 128.654 98.7769 131.441 98.7769C139.267 98.7746 147.116 96.3917 154.422 91.855C154.541 93.2931 154.828 93.9814 155.465 94.6249C156.055 95.2243 156.893 95.5775 157.736 95.5775C159.088 95.5775 160.378 96.1581 161.273 97.1721C162.182 98.1987 162.588 99.5258 162.419 100.912C162.259 102.19 161.374 103.444 160.053 104.271C158.725 105.098 157.601 105.224 156.178 104.723C155.329 104.412 154.386 104.501 153.6 104.937C152.81 105.377 152.247 106.135 152.054 107.018C148.99 121.086 138.592 132.578 124.914 137.01L123.525 137.464C119.612 138.733 115.615 138.78 111.97 137.603C98.057 133.126 87.5873 121.433 84.6467 107.089ZM110.041 143.595C112.425 144.363 114.906 144.744 117.422 144.744C120.093 144.744 122.8 144.314 125.468 143.45L126.27 143.188V144.351C126.27 149.556 122.035 153.791 116.83 153.791C111.625 153.791 107.39 149.556 107.39 144.351V142.552C108.274 142.898 109.129 143.301 110.041 143.595ZM170.323 207.284H151.443V191.551C151.443 189.812 150.035 188.404 148.296 188.404C146.557 188.404 145.149 189.812 145.149 191.551V207.284H85.3626V191.551C85.3626 189.812 83.9552 188.404 82.2159 188.404C80.4766 188.404 79.0692 189.812 79.0692 191.551V207.284H63.3359V184.548C63.3359 174.134 69.3374 164.675 78.624 160.453L102.119 149.776C104.339 155.774 110.069 160.084 116.829 160.084C123.591 160.084 129.319 155.774 131.54 149.775L143.751 155.323C143.662 156.384 143.576 157.445 143.576 158.511C143.576 175.502 154.858 189.897 170.323 194.623V207.284ZM207.551 174.641C204.875 182.667 192.38 189.978 181.336 189.978C163.986 189.978 149.869 175.861 149.869 158.511C149.869 149.05 154.051 139.711 161.055 133.531C166.008 129.158 171.93 126.835 177.989 126.835C178.973 126.835 179.959 126.896 180.946 127.019C193.259 128.559 193.677 134.612 194.258 142.989C194.688 149.231 195.177 156.304 201.476 161.027C207.109 165.253 209.152 169.835 207.551 174.641Z" fill="#999999"/>
<path d="M193.922 161.787C188.788 161.787 184.611 165.963 184.611 171.098C184.611 176.229 188.788 180.405 193.922 180.405C199.057 180.405 203.233 176.229 203.233 171.098C203.233 165.963 199.058 161.787 193.922 161.787ZM193.922 174.112C192.26 174.112 190.905 172.76 190.905 171.098C190.905 169.435 192.26 168.08 193.922 168.08C195.585 168.08 196.94 169.435 196.94 171.098C196.94 172.76 195.585 174.112 193.922 174.112Z" fill="#999999"/>
<path d="M175.042 131.396C170.501 131.396 166.807 135.089 166.807 139.631C166.807 144.173 170.5 147.867 175.042 147.867C179.584 147.867 183.278 144.173 183.278 139.631C183.278 135.089 179.584 131.396 175.042 131.396ZM175.042 141.573C173.973 141.573 173.1 140.701 173.1 139.631C173.1 138.561 173.972 137.689 175.042 137.689C176.112 137.689 176.985 138.561 176.985 139.631C176.985 140.701 176.112 141.573 175.042 141.573Z" fill="#999999"/>
<path d="M169.118 156.938C169.118 152.396 165.424 148.702 160.882 148.702C156.34 148.702 152.646 152.395 152.646 156.938C152.646 161.48 156.34 165.173 160.882 165.173C165.424 165.173 169.118 161.48 169.118 156.938ZM160.882 158.88C159.813 158.88 158.94 158.007 158.94 156.938C158.94 155.868 159.812 154.995 160.882 154.995C161.952 154.995 162.824 155.868 162.824 156.938C162.824 158.007 161.952 158.88 160.882 158.88Z" fill="#999999"/>
<path d="M171.896 169.155C167.354 169.155 163.66 172.849 163.66 177.391C163.66 181.933 167.354 185.626 171.896 185.626C176.438 185.626 180.131 181.933 180.131 177.391C180.131 172.849 176.438 169.155 171.896 169.155ZM171.896 179.333C170.827 179.333 169.953 178.461 169.953 177.391C169.953 176.321 170.826 175.449 171.896 175.449C172.966 175.449 173.838 176.321 173.838 177.391C173.838 178.461 172.966 179.333 171.896 179.333Z" fill="#999999"/>
<path d="M48.3024 136.131C47.7187 135.554 47.1255 134.967 46.5481 134.361C46.5473 134.36 46.5465 134.36 46.5465 134.359C46.5457 134.359 46.5457 134.359 46.5457 134.358C44.1338 131.835 42.5267 129.536 42.5267 126.528C42.5267 122.53 40.4522 121.433 39.214 121.136C34.3068 119.894 28.5602 129.525 25.5732 135.348C23.7788 138.847 21.6367 143.746 21.6367 147.209C21.6367 153.315 25.0044 158.599 29.9439 161.459L28.1236 201.882C27.9757 205.148 29.1195 208.308 31.2608 210.545C33.1291 212.502 35.5812 213.578 38.1622 213.578C40.7433 213.578 43.1953 212.502 45.0637 210.545C47.2057 208.308 48.3488 205.149 48.2009 201.882L46.3805 161.459C51.32 158.598 54.6885 153.314 54.6885 147.209C54.6877 142.455 51.2948 139.094 48.3024 136.131ZM36.5637 129.622C37.1474 132.256 38.4289 134.447 39.9133 136.333C38.801 137.16 37.7036 137.596 36.6314 137.639C35.1871 137.633 33.62 136.966 32.3417 136.041C33.8655 133.334 35.3625 131.15 36.5637 129.622ZM41.9138 202.165C41.9846 203.722 41.4741 205.195 40.5159 206.196C40.0424 206.694 39.247 207.284 38.1622 207.284C37.0774 207.284 36.2813 206.694 35.8085 206.196C34.8496 205.195 34.3398 203.722 34.4106 202.165L36.1499 163.531C36.817 163.613 37.4731 163.735 38.1622 163.735C38.8513 163.735 39.5074 163.614 40.1745 163.531L41.9138 202.165ZM38.1614 157.442C32.5195 157.442 27.9285 152.851 27.9285 147.209C27.9285 146.317 28.3958 144.42 29.549 141.686C31.8146 143.136 34.1195 143.936 36.4465 143.936C36.5881 143.936 36.7289 143.932 36.8737 143.926C39.4508 143.827 41.9083 142.815 44.2156 140.941C46.4899 143.2 48.3944 145.181 48.3944 147.208C48.3944 152.851 43.8034 157.442 38.1614 157.442Z" fill="#999999"/>
</svg>
