<svg width="25.000000" height="25.000000" viewBox="0 0 25 25" fill="none" xmlns="http://www.w3.org/2000/svg" xmlns:xlink="http://www.w3.org/1999/xlink">
	<defs/>
	<path id="Vector" d="M24.9114 22.8136L19.8535 18.3573C21.3411 16.3763 22.1458 13.9543 22.1458 11.4068C22.1458 8.35736 20.9905 5.49805 18.9014 3.34216C16.8123 1.18628 14.0293 0 11.0728 0C8.11646 0 5.3335 1.19012 3.24438 3.34216C1.15161 5.49426 0 8.35736 0 11.4068C0 14.4524 1.15527 17.3193 3.24438 19.4714C5.3335 21.6273 8.11279 22.8136 11.0728 22.8136C13.5457 22.8136 15.8933 21.9847 17.8162 20.4562L22.8738 24.9086C22.9021 24.9376 22.9353 24.9606 22.9722 24.9763C23.0088 24.9919 23.0481 25 23.0879 25C23.1277 25 23.167 24.9919 23.2039 24.9763C23.2405 24.9606 23.2739 24.9376 23.302 24.9086L24.9114 23.2546C24.9395 23.2256 24.9617 23.1913 24.9771 23.1534C24.9922 23.1156 25 23.0751 25 23.0341C25 22.9932 24.9922 22.9526 24.9771 22.9147C24.9617 22.8769 24.9395 22.8425 24.9114 22.8136ZM16.9192 17.4296C15.3542 19.0379 13.28 19.9238 11.0728 19.9238C8.86572 19.9238 6.79126 19.0379 5.22632 17.4296C3.66504 15.8174 2.80518 13.6805 2.80518 11.4068C2.80518 9.13306 3.66504 6.99237 5.22632 5.38397C6.79126 3.77563 8.86572 2.88971 11.0728 2.88971C13.28 2.88971 15.3579 3.77185 16.9192 5.38397C18.4805 6.99615 19.3406 9.13306 19.3406 11.4068C19.3406 13.6805 18.4805 15.8212 16.9192 17.4296Z" fill="#FFFFFF" fill-opacity="1.000000" fill-rule="nonzero"/>
</svg>
